<svg id="visual" viewBox="0 0 900 600" width="900" height="600" xmlns="http://www.w3.org/2000/svg" xmlns:xlink="http://www.w3.org/1999/xlink" version="1.1"><rect x="0" y="0" width="900" height="600" fill="#ffffff"></rect><path d="M168 0L148 0L148 86L185 86L185 171L210 171L210 257L179 257L179 343L186 343L186 429L214 429L214 514L221 514L221 600L0 600L0 514L0 514L0 429L0 429L0 343L0 343L0 257L0 257L0 171L0 171L0 86L0 86L0 0L0 0Z" fill="#560090"></path><path d="M117 0L133 0L133 86L150 86L150 171L156 171L156 257L101 257L101 343L149 343L149 429L124 429L124 514L136 514L136 600L0 600L0 514L0 514L0 429L0 429L0 343L0 343L0 257L0 257L0 171L0 171L0 86L0 86L0 0L0 0Z" fill="#7700c6"></path><path d="M63 0L83 0L83 86L68 86L68 171L92 171L92 257L37 257L37 343L76 343L76 429L75 429L75 514L42 514L42 600L0 600L0 514L0 514L0 429L0 429L0 343L0 343L0 257L0 257L0 171L0 171L0 86L0 86L0 0L0 0Z" fill="#9900ff"></path></svg>